HIERARCHY
ROOT Hips
{
	OFFSET 0.00 0.00 0.00
	CHANNELS 6 Xposition Yposition Zposition Zrotation Yrotation Xrotation
	JOINT Spine
	{
		OFFSET	0.0000	12.9474	1.3069
		CHANNELS 3 Zrotation Yrotation Xrotation
		JOINT Spine1
		{
			OFFSET	0.0000	11.6502	0.0897
			CHANNELS 3 Zrotation Yrotation Xrotation
			JOINT Spine2
			{
				OFFSET	0.0000	11.8996	-0.0200
				CHANNELS 3 Zrotation Yrotation Xrotation
				JOINT Neck
				{
					OFFSET	0.0000	29.8625	-6.8568
					CHANNELS 3 Zrotation Yrotation Xrotation
					JOINT Head
					{
						OFFSET	0.0000	15.8127	4.5046
						CHANNELS 3 Zrotation Yrotation Xrotation
						End Site
						{
							OFFSET 0.0000 16.9142 8.5489
						}
					}
				}
				JOINT LeftShoulder
				{
					OFFSET	15.6932	30.5276	-14.8855
					CHANNELS 3 Zrotation Yrotation Xrotation
					JOINT LeftArm
					{
						OFFSET	15.1106	-10.2541	-0.0017
						CHANNELS 3 Zrotation Yrotation Xrotation
						JOINT LeftForeArm
						{
							OFFSET	31.4047	-20.2208	-1.5857
							CHANNELS 3 Zrotation Yrotation Xrotation
							JOINT LeftHand
							{
								OFFSET	33.6957	-19.2580	15.6991
								CHANNELS 3 Zrotation Yrotation Xrotation
								JOINT LeftHandMiddle1
								{
									OFFSET	11.0571	-10.4817	9.4547
									CHANNELS 3 Zrotation Yrotation Xrotation
									JOINT LeftHandMiddle2
									{
										OFFSET	3.4215	-5.0087	3.1670
										CHANNELS 3 Zrotation Yrotation Xrotation
										JOINT LeftHandMiddle3
										{
											OFFSET	1.8148	-4.7192	2.5351
											CHANNELS 3 Zrotation Yrotation Xrotation
											End Site
											{
												OFFSET 0.5564 -3.7387 2.3634
											}
										}
									}
								}
								JOINT LeftHandThumb1
								{
									OFFSET	-1.0031	-1.2668	10.5842
									CHANNELS 3 Zrotation Yrotation Xrotation
									JOINT LeftHandThumb2
									{
										OFFSET	0.2584	0.1803	6.9748
										CHANNELS 3 Zrotation Yrotation Xrotation
										JOINT LeftHandThumb3
										{
											OFFSET	0.4558	-1.3006	4.2279
											CHANNELS 3 Zrotation Yrotation Xrotation
											End Site
											{
												OFFSET 0.3543 -2.2515 4.8270
											}
										}
									}
								}
								JOINT LeftHandIndex1
								{
									OFFSET	10.1078	-6.3687	14.1094
									CHANNELS 3 Zrotation Yrotation Xrotation
									JOINT LeftHandIndex2
									{
										OFFSET	3.1194	-3.8277	3.9230
										CHANNELS 3 Zrotation Yrotation Xrotation
										JOINT LeftHandIndex3
										{
											OFFSET	1.3756	-4.1963	2.9070
											CHANNELS 3 Zrotation Yrotation Xrotation
											End Site
											{
												OFFSET 0.6727 -3.7890 2.5988
											}
										}
									}
								}
								JOINT LeftHandRing1
								{
									OFFSET	10.0847	-13.6899	4.3344
									CHANNELS 3 Zrotation Yrotation Xrotation
									JOINT LeftHandRing2
									{
										OFFSET	3.2413	-5.1039	1.8840
										CHANNELS 3 Zrotation Yrotation Xrotation
										JOINT LeftHandRing3
										{
											OFFSET	1.5323	-5.0397	1.9270
											CHANNELS 3 Zrotation Yrotation Xrotation
											End Site
											{
												OFFSET 0.8809 -4.1420 1.4919
											}
										}
									}
								}
								JOINT LeftHandPinky1
								{
									OFFSET	9.0408	-16.1777	-0.5730
									CHANNELS 3 Zrotation Yrotation Xrotation
									JOINT LeftHandPinky2
									{
										OFFSET	2.5791	-4.9057	0.6134
										CHANNELS 3 Zrotation Yrotation Xrotation
										JOINT LeftHandPinky3
										{
											OFFSET	0.8052	-3.7871	1.3188
											CHANNELS 3 Zrotation Yrotation Xrotation
											End Site
											{
												OFFSET 0.2188 -3.8976 1.6089
											}
										}
									}
								}
							}
						}
					}
				}
				JOINT RightShoulder
				{
					OFFSET	-15.6932	30.5276	-14.8855
					CHANNELS 3 Zrotation Yrotation Xrotation
					JOINT RightArm
					{
						OFFSET	-15.1106	-10.2541	-0.0017
						CHANNELS 3 Zrotation Yrotation Xrotation
						JOINT RightForeArm
						{
							OFFSET	-31.4047	-20.2208	-1.5857
							CHANNELS 3 Zrotation Yrotation Xrotation
							JOINT RightHand
							{
								OFFSET	-33.6957	-19.2580	15.6991
								CHANNELS 3 Zrotation Yrotation Xrotation
								JOINT RightHandThumb1
								{
									OFFSET	1.0031	-1.2668	10.5842
									CHANNELS 3 Zrotation Yrotation Xrotation
									JOINT RightHandThumb2
									{
										OFFSET	-0.2584	0.1803	6.9748
										CHANNELS 3 Zrotation Yrotation Xrotation
										JOINT RightHandThumb3
										{
											OFFSET	-0.4558	-1.3006	4.2279
											CHANNELS 3 Zrotation Yrotation Xrotation
											End Site
											{
												OFFSET -0.3543 -2.2515 4.8270
											}
										}
									}
								}
								JOINT RightHandIndex1
								{
									OFFSET	-10.1078	-6.3687	14.1094
									CHANNELS 3 Zrotation Yrotation Xrotation
									JOINT RightHandIndex2
									{
										OFFSET	-3.1194	-3.8277	3.9230
										CHANNELS 3 Zrotation Yrotation Xrotation
										JOINT RightHandIndex3
										{
											OFFSET	-1.3756	-4.1963	2.9070
											CHANNELS 3 Zrotation Yrotation Xrotation
											End Site
											{
												OFFSET -0.6727 -3.7890 2.5988
											}
										}
									}
								}
								JOINT RightHandMiddle1
								{
									OFFSET	-11.0571	-10.4817	9.4547
									CHANNELS 3 Zrotation Yrotation Xrotation
									JOINT RightHandMiddle2
									{
										OFFSET	-3.4215	-5.0087	3.1670
										CHANNELS 3 Zrotation Yrotation Xrotation
										JOINT RightHandMiddle3
										{
											OFFSET	-1.8148	-4.7192	2.5351
											CHANNELS 3 Zrotation Yrotation Xrotation
											End Site
											{
												OFFSET -0.5564 -3.7387 2.3634
											}
										}
									}
								}
								JOINT RightHandRing1
								{
									OFFSET	-10.0847	-13.6899	4.3344
									CHANNELS 3 Zrotation Yrotation Xrotation
									JOINT RightHandRing2
									{
										OFFSET	-3.2413	-5.1039	1.8840
										CHANNELS 3 Zrotation Yrotation Xrotation
										JOINT RightHandRing3
										{
											OFFSET	-1.5323	-5.0397	1.9270
											CHANNELS 3 Zrotation Yrotation Xrotation
											End Site
											{
												OFFSET -0.8809 -4.1420 1.4919
											}
										}
									}
								}
								JOINT RightHandPinky1
								{
									OFFSET	-9.0408	-16.1777	-0.5730
									CHANNELS 3 Zrotation Yrotation Xrotation
									JOINT RightHandPinky2
									{
										OFFSET	-2.5791	-4.9057	0.6134
										CHANNELS 3 Zrotation Yrotation Xrotation
										JOINT RightHandPinky3
										{
											OFFSET	-0.8052	-3.7871	1.3188
											CHANNELS 3 Zrotation Yrotation Xrotation
											End Site
											{
												OFFSET -0.2188 -3.8976 1.6089
											}
										}
									}
								}
							}
						}
					}
				}
			}
		}
	}
	JOINT LeftUpLeg
	{
		OFFSET	15.6585	-8.4068	1.4670
		CHANNELS 3 Zrotation Yrotation Xrotation
		JOINT LeftLeg
		{
			OFFSET	4.8126	-36.5793	1.4225
			CHANNELS 3 Zrotation Yrotation Xrotation
			JOINT LeftFoot
			{
				OFFSET	3.3315	-36.9309	-9.3826
				CHANNELS 3 Zrotation Yrotation Xrotation
				JOINT LeftToeBase
				{
					OFFSET	5.8406	-16.0536	19.7570
					CHANNELS 3 Zrotation Yrotation Xrotation
					End Site
					{
						OFFSET 2.6829 1.8767 15.4928
					}
				}
			}
		}
	}
	JOINT RightUpLeg
	{
		OFFSET	-15.6585	-8.4068	1.4670
		CHANNELS 3 Zrotation Yrotation Xrotation
		JOINT RightLeg
		{
			OFFSET	-4.8126	-36.5793	1.4225
			CHANNELS 3 Zrotation Yrotation Xrotation
			JOINT RightFoot
			{
				OFFSET	-3.3315	-36.9309	-9.3826
				CHANNELS 3 Zrotation Yrotation Xrotation
				JOINT RightToeBase
				{
					OFFSET	-5.8406	-16.0536	19.7570
					CHANNELS 3 Zrotation Yrotation Xrotation
					End Site
					{
						OFFSET -2.6829 1.8767 15.4928
					}
				}
			}
		}
	}
}
MOTION
Frames: 4
Frame Time: 0.0333333
0.1993 88.5320 -1.8634 1.3152 -3.5427 -0.4327 -0.1318 0.6769 2.0819 -0.3922 1.3687 3.1300 -0.3793 1.3752 3.1292 -1.8934 -2.3070 -4.1282 7.1007 -12.9912 -16.3454 9.6883 -7.3687 0.0247 -47.4479 -2.3086 27.2022 39.9973 -58.5707 -69.7393 36.5513 -9.4668 31.5616 -28.9819 -25.0755 0.0653 -29.4336 -17.1908 2.9372 -18.5733 -8.3106 6.3337 -6.5877 4.2857 27.5249 -2.8327 -0.1273 -1.7709 -0.6221 5.9491 3.3474 -23.7008 -18.9587 1.5355 -25.7854 -22.0685 2.5312 -20.8539 -12.2504 5.5039 -30.2846 -30.8785 -5.5368 -24.3916 -10.0218 0.3771 -30.2693 -12.3141 0.0044 -26.0476 -32.5979 -11.9193 -24.2840 -6.2609 2.9924 -20.7591 -7.7552 1.1932 -2.4603 1.6813 0.5939 46.4537 11.7729 33.9607 -52.4512 60.0138 -84.2001 -41.1523 6.5508 18.7494 8.6252 -12.5654 28.8810 -0.5042 2.1014 -8.8563 -1.4647 -4.8465 -4.6142 37.7020 21.0172 14.5192 12.8542 13.9241 -3.1083 26.6163 15.0788 7.6166 25.7949 22.9976 -0.5430 24.9928 15.1254 1.6098 25.7438 11.5653 7.9546 31.8225 30.8911 -3.8931 10.7180 4.5164 -0.4929 24.1818 10.0124 -0.7406 34.6325 37.2471 -9.8971 29.2881 4.1742 5.3387 22.3583 8.3671 1.2694 -10.8205 1.6401 -27.1638 9.2391 4.6040 55.1223 9.1844 -0.9902 -26.8667 -0.0000 -0.0000 -5.5373 7.7699 -5.8014 -24.5883 -15.7728 -6.4747 56.7589 -1.3000 -1.1343 -29.1339 0.0000 -0.0000 -8.0292 
0.1969 89.7089 -1.8031 0.9772 -3.3213 0.0679 -0.0938 0.6489 1.8657 -0.2367 1.2972 2.7495 -0.2250 1.3027 2.7486 -1.6754 -2.2889 -3.9762 6.7385 -12.6918 -16.7180 11.1765 -8.3489 -0.2481 -49.3474 -1.8085 27.7533 41.4773 -58.8369 -71.4708 38.2561 -8.9784 30.3924 -29.2933 -25.5064 -0.2318 -29.5731 -17.2523 2.9825 -18.4799 -8.2662 6.3158 -6.2522 4.5314 27.4674 -2.8347 -0.1262 -1.7655 -0.6827 5.9895 3.6136 -23.7985 -19.0997 1.4504 -25.5444 -21.9367 2.4121 -20.7634 -12.2033 5.4734 -30.7379 -31.1932 -5.5132 -24.4571 -10.0472 0.3845 -30.0940 -12.2500 -0.0214 -26.7800 -32.9681 -11.6623 -24.9382 -6.4661 2.9877 -20.5676 -7.6803 1.1896 -2.4399 2.6722 0.6795 45.6879 12.4923 35.2185 -54.8175 60.0993 -86.9303 -40.4894 6.4253 16.2362 8.3177 -12.7860 28.9147 -0.5042 2.1014 -8.8563 -1.4740 -4.8256 -4.7062 37.4190 20.9994 14.2293 12.6795 13.8003 -3.1738 26.4533 15.0023 7.5543 25.2276 22.8304 -0.9585 24.6063 14.9421 1.4981 25.7556 11.5727 7.9579 31.5481 30.7961 -4.0513 10.6039 4.4697 -0.4949 24.0992 9.9816 -0.7494 34.5186 37.2318 -9.9994 29.3556 4.1924 5.3358 22.3054 8.3464 1.2678 -10.7973 1.3569 -27.3529 9.5249 4.2518 53.5622 9.0462 -1.0938 -24.3462 -0.0000 -0.0000 -7.3580 7.9114 -6.1321 -24.6532 -15.5109 -6.9405 54.9021 -1.4313 -0.7495 -26.2878 0.0000 -0.0000 -10.0334 
0.2885 93.1010 -1.3180 0.3405 -3.4939 0.4775 0.1352 0.7011 1.4690 0.0977 1.4021 2.1950 0.1083 1.4091 2.1933 -1.4297 -2.2866 -4.1275 6.5492 -12.5781 -15.6548 11.8308 -8.6403 -0.3621 -49.3659 -2.0406 29.3709 46.5578 -59.5482 -77.3833 39.1126 -9.2020 30.3577 -29.2685 -25.7816 -0.6804 -29.5486 -17.2415 2.9745 -18.3676 -8.2128 6.2943 -5.9698 4.7396 27.3969 -2.7217 -0.1928 -2.0676 -0.7250 6.0181 3.8013 -23.7562 -19.2485 1.1923 -25.2032 -21.7489 2.2441 -20.5843 -12.1100 5.4133 -30.6629 -31.2532 -5.6887 -24.4440 -10.0421 0.3830 -29.9575 -12.1999 -0.0413 -26.7435 -32.9541 -11.6826 -25.3341 -6.5902 2.9861 -20.4628 -7.6392 1.1876 -0.6214 3.8142 0.8602 42.0406 13.4481 36.0911 -62.0318 60.0121 -95.2506 -40.2006 6.3673 14.8063 7.9227 -13.0546 29.1126 -0.5042 2.1014 -8.8563 -1.4816 -4.8085 -4.7813 37.1143 21.0343 13.8349 12.4798 13.6584 -3.2482 26.3271 14.9430 7.5062 24.8477 22.8342 -1.4110 24.1262 14.7130 1.3609 25.7737 11.5846 7.9629 31.1718 30.6286 -4.2123 10.2863 4.3395 -0.5000 24.0552 9.9645 -0.7542 34.3338 37.2295 -10.2052 29.2381 4.1607 5.3409 22.2505 8.3250 1.2660 -10.5733 1.9464 -26.7000 8.9642 2.8950 48.8949 8.0428 -1.3358 -15.9820 -0.0000 -0.0000 -13.4037 7.3650 -7.1634 -23.2088 -14.6445 -7.5247 48.6582 0.7814 2.0501 -16.9731 0.0000 -0.0000 -13.1038 
0.4569 97.5586 -0.7042 -0.2530 -3.9324 1.0142 0.4251 0.7977 0.9769 0.4536 1.6045 1.5231 0.4625 1.6141 1.5197 -1.2525 -2.3090 -4.7417 6.5543 -12.7036 -13.6114 11.3057 -8.1568 -0.2445 -47.0591 -3.0373 31.2119 54.3462 -60.0868 -86.3866 39.0535 -9.8456 31.5805 -29.0076 -25.8649 -1.1083 -29.4842 -17.2131 2.9537 -18.2743 -8.1684 6.2766 -5.9061 4.7871 27.3690 -2.6299 -0.2463 -2.3114 -0.7621 6.0436 3.9679 -23.6264 -19.3464 0.9043 -25.0054 -21.6393 2.1472 -20.4370 -12.0331 5.3640 -30.2848 -31.1229 -5.9107 -24.4183 -10.0321 0.3801 -29.8918 -12.1758 -0.0509 -26.0705 -32.5877 -11.8747 -25.2564 -6.5659 2.9863 -20.4721 -7.6429 1.1878 0.8725 4.0888 0.9608 38.1784 15.7494 36.4338 -70.3074 59.2476 -104.8346 -40.1728 7.3562 15.4200 7.5361 -13.2986 29.4996 -0.5042 2.1014 -8.8563 -1.4988 -4.7707 -4.9476 37.0835 21.2239 13.5138 12.2731 13.5110 -3.3248 26.2080 14.8868 7.4609 25.0836 23.2104 -1.6967 23.7597 14.5369 1.2575 25.8037 11.6029 7.9711 31.0879 30.6107 -4.2781 9.9821 4.2148 -0.5043 24.1092 9.9860 -0.7483 34.1726 37.2894 -10.4935 29.2526 4.1646 5.3403 22.2153 8.3114 1.2650 -9.9167 3.4625 -25.9548 7.3803 1.0295 41.9713 5.2591 -1.4954 -2.3931 -0.7423 -0.1974 -15.2636 7.2781 -9.1794 -20.6788 -11.4082 -6.6877 38.9694 1.0919 2.7693 -5.1955 -0.0672 -0.0153 -15.3127 
